# xmcd CD database file generated by RipIT.
#
# Track frame offsets:
#	150
#	33032
#	55620
#	77030
#	112010
#	138285
#	168905
#	192117
#
# Disc length: 2891 seconds
#
# Revision: 2
# Processed by: cddbd v1.5.1PL2 Copyright (c) Steve Scherf et al.
# Submitted via: RipIT 3.4 www.suwald.com/ripit/ripit.html at Tue Mar 7 07:49:31 CET 2006.
#
DISCID=5a0b4908
DTITLE=Depeche Mode - Live In Lausanne, 1993
DYEAR=1993
DGENRE=Synthpop
TTITLE0=I Feel You
TTITLE1=Never Let Me Down Again
TTITLE2=Rush
TTITLE3=In Your Room
TTITLE4=Personal Jesus
TTITLE5=Enjoy The Silence
TTITLE6=Fly On The Windscreen
TTITLE7=Everything Counts
EXTD=ID3G: 147 YEAR: 1993
EXTT0=
EXTT1=
EXTT2=
EXTT3=
EXTT4=
EXTT5=
EXTT6=
EXTT7=
PLAYORDER=
